<svg width="228" height="73" viewBox="0 0 228 73" fill="none" xmlns="http://www.w3.org/2000/svg">
<g clip-path="url(#clip0_115_3707)">
<path d="M146.823 21.1952L162.488 46.0198L169.313 35.2234L164.327 27.45C164.33 27.45 159.805 20.4554 146.823 21.1952Z" fill="url(#paint0_linear_115_3707)"/>
<path d="M165.335 47.4689C164.162 47.4689 163.075 46.896 162.488 45.9643L146.823 21.1396C151.52 21.1396 155.863 23.4313 158.21 27.1553L168.179 42.9578C169.445 44.9631 167.865 47.4689 165.335 47.4689Z" fill="url(#paint1_linear_115_3707)"/>
<path d="M167.441 48.459C169.597 48.459 171.59 47.4049 172.668 45.6917L201.436 0.0195312C192.809 0.0195312 184.836 4.23855 180.524 11.0858L162.213 40.1628C159.892 43.8506 162.795 48.459 167.441 48.459Z" fill="url(#paint2_linear_115_3707)"/>
<path d="M201.436 0.0195312L172.629 45.7446C172.623 45.7501 172.623 45.7585 172.62 45.7613C171.534 47.43 169.569 48.4562 167.444 48.4562C167.171 48.4562 166.899 48.4395 166.641 48.4089L166.913 47.9667L171.809 39.6928L193.923 4.59732C193.92 4.6001 196.492 0.216994 201.436 0.0195312Z" fill="url(#paint3_linear_115_3707)"/>
<path d="M8.4223 4.10498H19.4639L11.0416 47.4716H0L8.4223 4.10498ZM47.235 29.0075C48.0885 24.5743 46.2665 22.3244 41.8279 22.3244C37.162 22.3244 32.7234 24.7551 31.3562 31.7414L28.341 47.4716H18.3241L24.6408 14.9153H34.3152L33.4056 19.6544H33.5179C35.7948 16.8622 41.258 14.0671 47.0638 14.0671C52.2435 14.0671 59.6972 16.2531 57.8752 25.7897L53.6641 47.4716H43.6471L47.235 29.0075ZM89.4083 29.0075C90.2617 24.5743 88.4397 22.3244 84.0012 22.3244C79.3352 22.3244 74.8967 24.7551 73.5294 31.7414L70.5143 47.4716H60.4974L66.8141 14.9153H76.4885L75.5789 19.6544H75.694C77.9708 16.8622 83.4341 14.0671 89.237 14.0671C94.4167 14.0671 101.87 16.2531 100.048 25.7897L95.8373 47.4716H85.8232L89.4083 29.0075ZM128.21 12.5347C140.217 12.5347 147.387 17.6993 144.942 30.0282C142.494 42.357 133.502 47.5217 121.382 47.5217C109.375 47.5217 102.205 42.3598 104.653 30.0282C107.098 17.6965 116.09 12.5347 128.21 12.5347ZM122.862 39.9875C129.063 39.9875 133.274 36.4026 134.583 30.0254C135.894 23.6482 132.932 20.0633 126.73 20.0633C120.526 20.0633 116.315 23.6482 115.006 30.0254C113.701 36.4054 116.66 39.9875 122.862 39.9875ZM189.737 23.7122C192.924 13.6889 201.689 12.5347 209.94 12.5347C224.28 12.5347 226.445 17.5157 225.193 23.5898L222.062 39.7455C221.436 42.599 221.551 44.6654 221.947 46.3035H211.93C211.759 45.1493 211.703 43.9952 211.874 42.841C207.834 46.5483 201.119 47.5189 196.677 47.5189C188.71 47.5189 183.702 44.5403 185.24 36.9477C186.776 28.9296 193.55 27.4139 199.808 26.9272L210.619 26.1373C213.634 25.8954 214.83 25.3503 215.341 22.7388C215.855 20.1272 214.089 18.8507 208.227 18.8507C203.957 18.8507 201.683 19.1538 199.406 23.7122H189.737ZM214.207 30.4509C212.102 31.4243 210.052 31.6663 208.003 31.847L202.085 32.3949C198.443 32.6981 196.621 33.7299 195.995 36.6473C195.369 39.562 197.587 41.2001 201.402 41.2001C206.467 41.2001 212.612 38.6498 213.693 33.1236L214.207 30.4509Z" fill="#0EA4B9"/>
<g filter="url(#filter0_d_115_3707)">
<path d="M2.81872 69.1175C1.96526 68.8227 1.30832 68.4333 0.842285 67.9466L1.36166 66.9371C1.81366 67.3848 2.41725 67.7492 3.16965 68.0273C3.92204 68.3054 4.69689 68.4444 5.4942 68.4444C6.61437 68.4444 7.45659 68.2414 8.01527 67.8326C8.57676 67.4238 8.8575 66.8953 8.8575 66.2473C8.8575 65.7523 8.7059 65.3546 8.39989 65.0598C8.09669 64.765 7.7233 64.5369 7.28253 64.3784C6.84177 64.2199 6.22694 64.0447 5.44086 63.8555C4.49756 63.6191 3.74798 63.3911 3.18649 63.1742C2.625 62.9544 2.14493 62.6207 1.74628 62.1729C1.34762 61.7252 1.1483 61.1161 1.1483 60.3485C1.1483 59.7227 1.31393 59.1526 1.64802 58.6381C1.9821 58.1236 2.49586 57.7147 3.18649 57.406C3.87712 57.1001 4.73619 56.9444 5.76371 56.9444C6.47961 56.9444 7.17866 57.0417 7.86648 57.2364C8.55149 57.4311 9.14667 57.7008 9.64639 58.0429L9.20001 59.0886C8.68203 58.749 8.11502 58.4893 7.51836 58.3182C6.92318 58.1458 6.33643 58.0624 5.76652 58.0624C4.66882 58.0624 3.84343 58.271 3.28756 58.6909C2.73169 59.1109 2.45656 59.6504 2.45656 60.3123C2.45656 60.8074 2.60816 61.2079 2.91417 61.5082C3.21737 61.8086 3.59918 62.0394 4.0596 62.2007C4.51721 62.3593 5.13485 62.5345 5.91251 62.7236C6.83054 62.9489 7.57451 63.1686 8.1388 63.3883C8.7059 63.608 9.18597 63.939 9.57901 64.3812C9.97205 64.8234 10.1686 65.4241 10.1686 66.1806C10.1686 66.8063 9.99732 67.3765 9.65762 67.891C9.31792 68.4055 8.79574 68.8116 8.09107 69.1147C7.38641 69.4151 6.52172 69.568 5.49701 69.568C4.56213 69.5597 3.66937 69.4123 2.81872 69.1175ZM12.7542 57.8288C12.5745 57.6508 12.4847 57.4394 12.4847 57.1919C12.4847 56.9555 12.5745 56.7497 12.7542 56.5717C12.9339 56.3937 13.1529 56.3047 13.4168 56.3047C13.6779 56.3047 13.8997 56.3909 14.0793 56.5606C14.259 56.733 14.3488 56.936 14.3488 57.1724C14.3488 57.4338 14.259 57.6508 14.0793 57.8288C13.8997 58.0068 13.6807 58.0958 13.4168 58.0958C13.1557 58.0958 12.9339 58.0068 12.7542 57.8288ZM12.7739 60.1316H14.0428V69.454H12.7739V60.1316ZM17.9171 69.2148C17.218 68.9951 16.6734 68.7226 16.2804 68.3916L16.8531 67.3987C17.2461 67.7047 17.7402 67.9577 18.3382 68.1524C18.9334 68.3471 19.5538 68.4444 20.1995 68.4444C21.0586 68.4444 21.6931 68.311 22.1058 68.0467C22.5185 67.7798 22.7234 67.4071 22.7234 66.9204C22.7234 66.5783 22.6111 66.3085 22.3837 66.1138C22.1563 65.9192 21.87 65.7718 21.5246 65.6716C21.1793 65.5715 20.7189 65.4742 20.1462 65.3796C19.3826 65.2378 18.7677 65.0932 18.3045 64.9457C17.8471 64.804 17.4361 64.5438 17.1142 64.1921C16.7857 63.8388 16.6229 63.3466 16.6229 62.7208C16.6229 61.9421 16.9513 61.3024 17.6055 60.8074C18.2624 60.3123 19.1748 60.062 20.3427 60.062C20.9519 60.062 21.5583 60.1427 22.1675 60.3012C22.7768 60.4597 23.2765 60.6711 23.6695 60.9298L23.1136 61.9393C22.3388 61.4081 21.4151 61.1411 20.3399 61.1411C19.5286 61.1411 18.9165 61.283 18.5066 61.5666C18.094 61.8503 17.889 62.223 17.889 62.6819C17.889 63.0351 18.0041 63.3188 18.2371 63.5329C18.4702 63.7443 18.7593 63.9028 19.1046 64.0029C19.4499 64.1031 19.9272 64.206 20.5364 64.3144C21.2888 64.4563 21.8896 64.5981 22.3444 64.7399C22.7964 64.8818 23.1838 65.1237 23.5067 65.4658C23.8295 65.8079 23.9896 66.2807 23.9896 66.8842C23.9896 67.6991 23.6471 68.3471 22.962 68.8255C22.277 69.3038 21.3253 69.543 20.1097 69.543C19.3433 69.543 18.6133 69.4345 17.9171 69.2148ZM31.2889 68.8867C31.0503 69.098 30.7555 69.2621 30.4045 69.3734C30.0536 69.4846 29.6858 69.543 29.304 69.543C28.4225 69.543 27.7403 69.3066 27.2658 68.8338C26.7886 68.361 26.5499 67.6935 26.5499 66.8314V61.1967H24.8683V60.1343H26.5499V58.0958H27.8189V60.1343H30.6825V61.1967H27.8189V66.7618C27.8189 67.3181 27.9593 67.7408 28.24 68.0301C28.5208 68.3193 28.9222 68.4639 29.4472 68.4639C29.7083 68.4639 29.9638 68.4222 30.208 68.3388C30.4523 68.2553 30.6656 68.1385 30.8425 67.9856L31.2889 68.8867ZM41.449 65.1821H33.5769C33.6471 66.15 34.0233 66.9343 34.7027 67.5294C35.3821 68.1274 36.2412 68.425 37.2799 68.425C37.8639 68.425 38.4001 68.3221 38.8886 68.1135C39.3771 67.9077 39.801 67.6018 40.1576 67.2013L40.8735 68.0162C40.4552 68.5112 39.933 68.8894 39.3069 69.1509C38.6809 69.4123 37.993 69.5402 37.2406 69.5402C36.2749 69.5402 35.4186 69.3372 34.6747 68.9284C33.9279 68.5195 33.3467 67.9577 32.9312 67.2346C32.5129 66.5143 32.3052 65.6994 32.3052 64.79C32.3052 63.8806 32.5045 63.0657 32.9032 62.3454C33.3018 61.625 33.8521 61.0633 34.5483 60.6628C35.2474 60.2623 36.0306 60.0593 36.9009 60.0593C37.7712 60.0593 38.5517 60.2595 39.2452 60.6628C39.9358 61.0633 40.4804 61.6223 40.8735 62.337C41.2665 63.0518 41.463 63.8694 41.463 64.7928L41.449 65.1821ZM34.6241 62.0033C34.0093 62.5762 33.6612 63.3243 33.5769 64.2449H40.2502C40.166 63.3243 39.8179 62.5762 39.203 62.0033C38.5882 61.4304 37.8218 61.1439 36.9037 61.1439C35.9998 61.1439 35.2389 61.4304 34.6241 62.0033ZM58.5799 61.0716C59.2537 61.7446 59.5906 62.7375 59.5906 64.0502V69.4568H58.3217V64.1754C58.3217 63.2075 58.0858 62.4677 57.6142 61.9588C57.1425 61.4498 56.4772 61.1967 55.6209 61.1967C54.6439 61.1967 53.8747 61.4943 53.3132 62.0923C52.7517 62.6902 52.471 63.5135 52.471 64.5647V69.4568H51.202V64.1754C51.202 63.2075 50.9662 62.4677 50.4945 61.9588C50.0229 61.4498 49.3519 61.1967 48.4816 61.1967C47.5158 61.1967 46.7494 61.4943 46.1823 62.0923C45.6152 62.6902 45.3317 63.5135 45.3317 64.5647V69.4568H44.0627V60.1343H45.2783V61.8364C45.6124 61.2691 46.0784 60.8324 46.6736 60.5237C47.2688 60.2178 47.9566 60.062 48.7315 60.062C49.5175 60.062 50.2026 60.2289 50.7809 60.5571C51.3592 60.888 51.7916 61.3775 52.0779 62.0283C52.4232 61.4137 52.9202 60.9325 53.5715 60.5849C54.22 60.2372 54.964 60.062 55.7978 60.062C56.9769 60.062 57.9062 60.3986 58.5799 61.0716ZM69.1611 60.9743C69.8181 61.5833 70.1437 62.4844 70.1437 63.6775V69.454H68.9281V67.9995C68.6418 68.4834 68.2207 68.8616 67.6676 69.1342C67.1117 69.4067 66.4548 69.543 65.6912 69.543C64.6412 69.543 63.8074 69.2955 63.1869 68.7977C62.5665 68.3026 62.2577 67.6463 62.2577 66.8314C62.2577 66.0387 62.5468 65.4019 63.1252 64.9179C63.7035 64.434 64.6243 64.1921 65.8905 64.1921H68.8776V63.6247C68.8776 62.8209 68.6502 62.2091 68.1982 61.7891C67.7434 61.3692 67.0836 61.1606 66.2133 61.1606C65.6154 61.1606 65.0454 61.2579 64.4952 61.4526C63.9477 61.6473 63.4761 61.9171 63.0831 62.2592L62.5103 61.3191C62.9876 60.9186 63.5603 60.6071 64.2285 60.3874C64.8967 60.1677 65.5985 60.0593 66.3397 60.0593C67.5609 60.062 68.5042 60.3652 69.1611 60.9743ZM67.7294 68.0634C68.2431 67.738 68.6249 67.268 68.8748 66.6534V65.1293H65.9242C64.3155 65.1293 63.5098 65.6855 63.5098 66.7952C63.5098 67.3375 63.7175 67.7658 64.1358 68.0801C64.5542 68.3944 65.1381 68.5501 65.8905 68.5501C66.6008 68.5501 67.2156 68.3888 67.7294 68.0634ZM73.9282 69.2148C73.2291 68.9951 72.6845 68.7226 72.2914 68.3916L72.8641 67.3987C73.2572 67.7047 73.7513 67.9577 74.3493 68.1524C74.9445 68.3471 75.5649 68.4444 76.2106 68.4444C77.0697 68.4444 77.7042 68.311 78.1169 68.0467C78.5295 67.7798 78.7345 67.4071 78.7345 66.9204C78.7345 66.5783 78.6222 66.3085 78.3948 66.1138C78.1674 65.9192 77.881 65.7718 77.5357 65.6716C77.1904 65.5715 76.73 65.4742 76.1573 65.3796C75.3936 65.2378 74.7788 65.0932 74.3156 64.9457C73.8582 64.804 73.4472 64.5438 73.1252 64.1921C72.7968 63.8388 72.6339 63.3466 72.6339 62.7208C72.6339 61.9421 72.9624 61.3024 73.6165 60.8074C74.2735 60.3123 75.1859 60.062 76.3538 60.062C76.963 60.062 77.5694 60.1427 78.1786 60.3012C78.7878 60.4597 79.2875 60.6711 79.6806 60.9298L79.1247 61.9393C78.3499 61.4081 77.4262 61.1411 76.351 61.1411C75.5396 61.1411 74.9276 61.283 74.5177 61.5666C74.105 61.8503 73.9001 62.223 73.9001 62.6819C73.9001 63.0351 74.0152 63.3188 74.2482 63.5329C74.4812 63.7443 74.7704 63.9028 75.1157 64.0029C75.461 64.1031 75.9383 64.206 76.5475 64.3144C77.2999 64.4563 77.9007 64.5981 78.3555 64.7399C78.8075 64.8818 79.1949 65.1237 79.5178 65.4658C79.8406 65.8079 80.0006 66.2807 80.0006 66.8842C80.0006 67.6991 79.6581 68.3471 78.9731 68.8255C78.2881 69.3038 77.3364 69.543 76.1208 69.543C75.3571 69.543 74.6244 69.4345 73.9282 69.2148ZM87.3 57.05H88.6251V69.4568H87.3V57.05ZM100.046 61.0799C100.742 61.7585 101.093 62.7486 101.093 64.0474V69.454H99.8239V64.1726C99.8239 63.2047 99.5797 62.465 99.0912 61.956C98.6027 61.447 97.9036 61.194 96.9968 61.194C95.9834 61.194 95.1804 61.4916 94.5909 62.0895C94.0013 62.6874 93.7065 63.5107 93.7065 64.562V69.454H92.4376V60.1316H93.6532V61.8503C93.9985 61.283 94.4786 60.8435 95.0934 60.5293C95.7082 60.215 96.4213 60.0593 97.2327 60.0593C98.409 60.062 99.3495 60.4013 100.046 61.0799ZM109.501 68.8867C109.262 69.098 108.968 69.2621 108.617 69.3734C108.266 69.4846 107.898 69.543 107.516 69.543C106.635 69.543 105.953 69.3066 105.478 68.8338C105.001 68.361 104.762 67.6935 104.762 66.8314V61.1967H103.081V60.1343H104.762V58.0958H106.031V60.1343H108.895V61.1967H106.031V66.7618C106.031 67.3181 106.172 67.7408 106.452 68.0301C106.733 68.3193 107.134 68.4639 107.659 68.4639C107.921 68.4639 108.176 68.4222 108.42 68.3388C108.665 68.2553 108.878 68.1385 109.055 67.9856L109.501 68.8867ZM119.661 65.1821H111.789C111.859 66.15 112.236 66.9343 112.915 67.5294C113.594 68.1274 114.453 68.425 115.492 68.425C116.076 68.425 116.612 68.3221 117.101 68.1135C117.589 67.9077 118.013 67.6018 118.37 67.2013L119.086 68.0162C118.667 68.5112 118.145 68.8894 117.519 69.1509C116.893 69.4123 116.205 69.5402 115.453 69.5402C114.487 69.5402 113.631 69.3372 112.887 68.9284C112.14 68.5195 111.559 67.9577 111.143 67.2346C110.725 66.5143 110.517 65.6994 110.517 64.79C110.517 63.8806 110.717 63.0657 111.115 62.3454C111.514 61.625 112.064 61.0633 112.761 60.6628C113.46 60.2623 114.243 60.0593 115.113 60.0593C115.983 60.0593 116.764 60.2595 117.457 60.6628C118.148 61.0633 118.693 61.6223 119.086 62.337C119.479 63.0518 119.675 63.8694 119.675 64.7928L119.661 65.1821ZM112.836 62.0033C112.222 62.5762 111.873 63.3243 111.789 64.2449H118.462C118.378 63.3243 118.03 62.5762 117.415 62.0033C116.8 61.4304 116.034 61.1439 115.116 61.1439C114.212 61.1439 113.451 61.4304 112.836 62.0033ZM130.986 60.1316V68.3193C130.986 69.9018 130.596 71.0754 129.816 71.8375C129.035 72.5995 127.856 72.9805 126.284 72.9805C125.414 72.9805 124.588 72.8526 123.805 72.5995C123.025 72.3464 122.39 71.9932 121.899 71.5454L122.542 70.5887C122.994 70.9892 123.547 71.3035 124.195 71.5288C124.847 71.754 125.529 71.8653 126.245 71.8653C127.438 71.8653 128.314 71.5899 128.875 71.0421C129.437 70.4914 129.717 69.6403 129.717 68.4806V67.293C129.324 67.8827 128.808 68.3332 128.171 68.6391C127.533 68.9451 126.826 69.1008 126.051 69.1008C125.169 69.1008 124.366 68.9089 123.645 68.5251C122.923 68.1413 122.356 67.6045 121.946 66.912C121.534 66.2195 121.329 65.438 121.329 64.5647C121.329 63.6914 121.534 62.9099 121.946 62.2258C122.359 61.5416 122.921 61.0076 123.637 60.6322C124.352 60.2539 125.158 60.0648 126.051 60.0648C126.851 60.0648 127.573 60.2233 128.215 60.5432C128.858 60.863 129.378 61.3219 129.771 61.9254V60.1343H130.986V60.1316ZM128.016 67.5489C128.564 67.2597 128.99 66.8536 129.296 66.3335C129.6 65.8135 129.754 65.2239 129.754 64.562C129.754 63.9 129.602 63.3132 129.296 62.7987C128.993 62.2842 128.569 61.8837 128.027 61.5945C127.486 61.3052 126.868 61.1606 126.177 61.1606C125.498 61.1606 124.886 61.3024 124.344 61.5861C123.802 61.8698 123.378 62.2703 123.075 62.7903C122.772 63.3104 122.617 63.9 122.617 64.562C122.617 65.2239 122.769 65.8135 123.075 66.3335C123.378 66.8536 123.802 67.2569 124.344 67.5489C124.886 67.8382 125.498 67.9828 126.177 67.9828C126.854 67.9828 127.466 67.8382 128.016 67.5489ZM137.095 60.5404C137.685 60.2206 138.418 60.062 139.288 60.062V61.2857L138.985 61.2691C137.994 61.2691 137.219 61.5694 136.66 62.1729C136.099 62.7764 135.818 63.6191 135.818 64.7066V69.4568H134.549V60.1343H135.765V61.9588C136.059 61.333 136.503 60.8602 137.095 60.5404ZM147.677 60.9743C148.334 61.5833 148.659 62.4844 148.659 63.6775V69.454H147.444V67.9995C147.157 68.4834 146.736 68.8616 146.183 69.1342C145.63 69.4067 144.97 69.543 144.207 69.543C143.157 69.543 142.323 69.2955 141.702 68.7977C141.082 68.3026 140.773 67.6463 140.773 66.8314C140.773 66.0387 141.062 65.4019 141.641 64.9179C142.219 64.434 143.14 64.1921 144.403 64.1921H147.39V63.6247C147.39 62.8209 147.163 62.2091 146.711 61.7891C146.259 61.3692 145.596 61.1606 144.726 61.1606C144.131 61.1606 143.558 61.2579 143.008 61.4526C142.46 61.6473 141.989 61.9171 141.596 62.2592L141.023 61.3191C141.5 60.9186 142.073 60.6071 142.741 60.3874C143.409 60.1677 144.111 60.0593 144.852 60.0593C146.079 60.062 147.02 60.3652 147.677 60.9743ZM146.245 68.0634C146.759 67.738 147.14 67.268 147.39 66.6534V65.1293H144.44C142.831 65.1293 142.025 65.6855 142.025 66.7952C142.025 67.3375 142.233 67.7658 142.651 68.0801C143.07 68.3944 143.654 68.5501 144.406 68.5501C145.119 68.5501 145.731 68.3888 146.245 68.0634ZM152.112 56.3047H153.381V69.454H152.112V56.3047ZM165.119 65.1821H157.247C157.317 66.15 157.694 66.9343 158.373 67.5294C159.052 68.1274 159.911 68.425 160.95 68.425C161.534 68.425 162.07 68.3221 162.562 68.1135C163.05 67.9077 163.474 67.6018 163.831 67.2013L164.546 68.0162C164.128 68.5112 163.606 68.8894 162.98 69.1509C162.354 69.4123 161.666 69.5402 160.914 69.5402C159.948 69.5402 159.092 69.3372 158.348 68.9284C157.601 68.5195 157.02 67.9577 156.604 67.2346C156.186 66.5143 155.978 65.6994 155.978 64.79C155.978 63.8806 156.177 63.0657 156.576 62.3454C156.975 61.625 157.525 61.0633 158.221 60.6628C158.918 60.2623 159.704 60.0593 160.574 60.0593C161.444 60.0593 162.225 60.2595 162.918 60.6628C163.609 61.0633 164.153 61.6223 164.546 62.337C164.939 63.0518 165.136 63.8694 165.136 64.7928L165.119 65.1821ZM158.294 62.0033C157.679 62.5762 157.331 63.3243 157.247 64.2449H163.92C163.836 63.3243 163.488 62.5762 162.873 62.0033C162.258 61.4304 161.492 61.1439 160.574 61.1439C159.667 61.1439 158.909 61.4304 158.294 62.0033ZM168.061 69.2148C167.362 68.9951 166.818 68.7226 166.425 68.3916L166.997 67.3987C167.39 67.7047 167.884 67.9577 168.482 68.1524C169.08 68.3471 169.698 68.4444 170.344 68.4444C171.203 68.4444 171.837 68.311 172.25 68.0467C172.663 67.7825 172.868 67.4071 172.868 66.9204C172.868 66.5783 172.755 66.3085 172.528 66.1138C172.301 65.9192 172.014 65.7718 171.669 65.6716C171.324 65.5715 170.863 65.4742 170.29 65.3796C169.527 65.2378 168.912 65.0932 168.449 64.9457C167.991 64.804 167.58 64.5438 167.258 64.1921C166.93 63.8388 166.767 63.3466 166.767 62.7208C166.767 61.9421 167.096 61.3024 167.75 60.8074C168.407 60.3123 169.319 60.062 170.487 60.062C171.096 60.062 171.703 60.1427 172.312 60.3012C172.921 60.4597 173.421 60.6711 173.814 60.9298L173.261 61.9393C172.486 61.4081 171.562 61.1411 170.487 61.1411C169.676 61.1411 169.064 61.283 168.654 61.5666C168.244 61.8503 168.036 62.223 168.036 62.6819C168.036 63.0351 168.151 63.3188 168.384 63.5329C168.617 63.7443 168.906 63.9028 169.252 64.0029C169.597 64.1031 170.074 64.206 170.684 64.3144C171.436 64.4563 172.037 64.5981 172.491 64.7399C172.943 64.8818 173.334 65.1237 173.654 65.4658C173.977 65.8079 174.137 66.2807 174.137 66.8842C174.137 67.6991 173.794 68.3471 173.109 68.8255C172.424 69.3038 171.472 69.543 170.257 69.543C169.49 69.543 168.758 69.4345 168.061 69.2148ZM182.211 69.1175C181.357 68.8227 180.7 68.4333 180.234 67.9466L180.754 66.9371C181.206 67.3848 181.809 67.7492 182.562 68.0273C183.314 68.3054 184.089 68.4444 184.886 68.4444C186.006 68.4444 186.849 68.2414 187.41 67.8326C187.972 67.4238 188.25 66.8953 188.25 66.2473C188.25 65.7523 188.098 65.3546 187.795 65.0598C187.492 64.765 187.118 64.5369 186.677 64.3784C186.237 64.2199 185.622 64.0447 184.836 63.8555C183.892 63.6191 183.143 63.3911 182.581 63.1742C182.02 62.9544 181.54 62.6207 181.141 62.1729C180.743 61.7252 180.543 61.1161 180.543 60.3485C180.543 59.7227 180.709 59.1526 181.043 58.6381C181.377 58.1236 181.891 57.7147 182.581 57.406C183.272 57.1001 184.131 56.9444 185.159 56.9444C185.875 56.9444 186.574 57.0417 187.261 57.2364C187.946 57.4311 188.542 57.7008 189.041 58.0429L188.595 59.0886C188.077 58.749 187.51 58.4893 186.913 58.3182C186.315 58.1458 185.731 58.0624 185.159 58.0624C184.061 58.0624 183.236 58.271 182.68 58.6909C182.124 59.1109 181.849 59.6504 181.849 60.3123C181.849 60.8074 182 61.2079 182.306 61.5082C182.609 61.8086 182.991 62.0394 183.452 62.2007C183.912 62.3593 184.527 62.5345 185.305 62.7236C186.223 62.9489 186.967 63.1686 187.531 63.3883C188.098 63.608 188.578 63.939 188.971 64.3812C189.364 64.8234 189.561 65.4241 189.561 66.1806C189.561 66.8063 189.389 67.3765 189.05 67.891C188.71 68.4055 188.188 68.8116 187.483 69.1147C186.779 69.4151 185.914 69.568 184.889 69.568C183.957 69.5597 183.064 69.4123 182.211 69.1175ZM191.978 69.2593C191.793 69.0702 191.7 68.8394 191.7 68.5696C191.7 68.297 191.793 68.0718 191.978 67.8882C192.163 67.7047 192.385 67.6129 192.649 67.6129C192.91 67.6129 193.137 67.7047 193.328 67.8882C193.519 68.0718 193.615 68.2998 193.615 68.5696C193.615 68.8422 193.519 69.073 193.328 69.2593C193.137 69.4484 192.91 69.543 192.649 69.543C192.388 69.543 192.163 69.4484 191.978 69.2593ZM205.046 66.1416H198.07L196.568 69.4568H195.19L200.914 57.05H202.219L207.944 69.4568H206.548L205.046 66.1416ZM204.564 65.0765L201.557 58.4128L198.55 65.0765H204.564ZM209.813 69.2593C209.628 69.0702 209.536 68.8394 209.536 68.5696C209.536 68.297 209.628 68.0718 209.813 67.8882C209.999 67.7047 210.221 67.6129 210.484 67.6129C210.746 67.6129 210.973 67.7047 211.164 67.8882C211.355 68.0718 211.45 68.2998 211.45 68.5696C211.45 68.8422 211.355 69.073 211.164 69.2593C210.973 69.4484 210.746 69.543 210.484 69.543C210.223 69.543 209.999 69.4484 209.813 69.2593ZM216.147 68.7448C215.15 68.2025 214.37 67.4488 213.803 66.4865C213.236 65.5242 212.952 64.4451 212.952 63.252C212.952 62.0589 213.236 60.9798 213.803 60.0175C214.37 59.0553 215.153 58.3016 216.155 57.7592C217.158 57.2169 218.278 56.9444 219.519 56.9444C220.448 56.9444 221.307 57.0973 222.096 57.406C222.882 57.712 223.55 58.1625 224.101 58.7521L223.258 59.5865C222.281 58.6047 221.046 58.1152 219.555 58.1152C218.564 58.1152 217.666 58.3405 216.855 58.7883C216.043 59.2388 215.409 59.8507 214.948 60.6322C214.488 61.4109 214.26 62.287 214.26 63.2548C214.26 64.2227 214.491 65.0987 214.948 65.8774C215.406 66.6562 216.043 67.2708 216.855 67.7213C217.666 68.1691 218.567 68.3944 219.555 68.3944C221.057 68.3944 222.293 67.8993 223.258 66.9065L224.101 67.738C223.55 68.3304 222.882 68.781 222.088 69.0952C221.293 69.4095 220.434 69.5653 219.502 69.5653C218.261 69.5597 217.144 69.2899 216.147 68.7448ZM226.363 69.2593C226.178 69.0702 226.085 68.8394 226.085 68.5696C226.085 68.297 226.178 68.0718 226.363 67.8882C226.549 67.7047 226.77 67.6129 227.034 67.6129C227.295 67.6129 227.523 67.7047 227.714 67.8882C227.905 68.0718 228 68.2998 228 68.5696C228 68.8422 227.905 69.073 227.714 69.2593C227.523 69.4484 227.295 69.543 227.034 69.543C226.77 69.543 226.546 69.4484 226.363 69.2593Z" fill="white"/>
</g>
</g>
<defs>
<filter id="filter0_d_115_3707" x="-3.15771" y="56.3047" width="235.158" height="24.6758" filterUnits="userSpaceOnUse" color-interpolation-filters="sRGB">
<feFlood flood-opacity="0" result="BackgroundImageFix"/>
<feColorMatrix in="SourceAlpha" type="matrix" values="0 0 0 0 0 0 0 0 0 0 0 0 0 0 0 0 0 0 127 0" result="hardAlpha"/>
<feOffset dy="4"/>
<feGaussianBlur stdDeviation="2"/>
<feComposite in2="hardAlpha" operator="out"/>
<feColorMatrix type="matrix" values="0 0 0 0 0 0 0 0 0 0 0 0 0 0 0 0 0 0 0.25 0"/>
<feBlend mode="normal" in2="BackgroundImageFix" result="effect1_dropShadow_115_3707"/>
<feBlend mode="normal" in="SourceGraphic" in2="effect1_dropShadow_115_3707" result="shape"/>
</filter>
<linearGradient id="paint0_linear_115_3707" x1="149.855" y1="14.2298" x2="169.645" y2="48.5478" gradientUnits="userSpaceOnUse">
<stop offset="0.15" stop-color="#06B9E8"/>
<stop offset="0.271" stop-color="#05A4CD"/>
<stop offset="0.53" stop-color="#046D89"/>
<stop offset="0.906" stop-color="#01171C"/>
<stop offset="1"/>
</linearGradient>
<linearGradient id="paint1_linear_115_3707" x1="149.788" y1="19.0905" x2="176.683" y2="65.1217" gradientUnits="userSpaceOnUse">
<stop offset="0.209" stop-color="#11CDE8"/>
<stop offset="0.321" stop-color="#0FB5CD"/>
<stop offset="0.563" stop-color="#0A7989"/>
<stop offset="0.912" stop-color="#02191C"/>
<stop offset="1"/>
</linearGradient>
<linearGradient id="paint2_linear_115_3707" x1="196.009" y1="-3.73476" x2="146.554" y2="80.9055" gradientUnits="userSpaceOnUse">
<stop offset="0.125" stop-color="#17A428"/>
<stop offset="0.45" stop-color="#0F6A1A"/>
<stop offset="1"/>
</linearGradient>
<linearGradient id="paint3_linear_115_3707" x1="201.173" y1="-6.15381" x2="146.363" y2="92.8214" gradientUnits="userSpaceOnUse">
<stop stop-color="#00FF6E"/>
<stop offset="0.245" stop-color="#00C555"/>
<stop offset="0.805" stop-color="#003416"/>
<stop offset="1"/>
</linearGradient>
<clipPath id="clip0_115_3707">
<rect width="228" height="73" fill="white"/>
</clipPath>
</defs>
</svg>
